# xmcd
#
# Track frame offsets: 
#        150
#        15472
#        29310
#        48770
#        60712
#        83627
#        97610
#        117022
#        134700
#        150070
#
# Disc length: 2480 seconds
#
# Revision: 1
# Processed by: cddbd v1.5.2PL0 Copyright (c) Steve Scherf et al.
# Submitted via: ExactAudioCopy v1.3
#
DISCID=6409ae0a
DTITLE=Weezer - Weezer (Blue Album)
DYEAR=1994
DGENRE=Rock
TTITLE0=My Name Is Jonas
TTITLE1=No One Else
TTITLE2=The World Has Turned and Left Me Here
TTITLE3=Buddy Holly
TTITLE4=Undone - The Sweater Song
TTITLE5=Surf Wax America
TTITLE6=Say It Ain't So
TTITLE7=In the Garage
TTITLE8=Holiday
TTITLE9=Only in Dreams
EXTD=
EXTT0=
EXTT1=
EXTT2=
EXTT3=
EXTT4=
EXTT5=
EXTT6=
EXTT7=
EXTT8=
EXTT9=
PLAYORDER=
